# xmcd CD database file
#
# Track frame offsets:
#	150
#	20390
#	37869
#	64059
#	79626
#	114613
#	131670
#	139583
#	155997
#	183159
#	205013
#
# Disc length: 2898 seconds
#
# Revision: 4
# Processed by: cddbd v1.5.1PL0 Copyright (c) Steve Scherf et al.
# Submitted via: CDex 1.51
#
DISCID=8d0b500b
DTITLE=岡村靖幸 - 靖幸
DYEAR=1989
DGENRE=Rock
TTITLE0=Vegetable
TTITLE1=ラブ タンバリン
TTITLE2=どんなことをして欲しいの僕に
TTITLE3=友人のふり
TTITLE4=聖書 -バイブル-
TTITLE5=だいすき
TTITLE6=Co' mon
TTITLE7=Boys
TTITLE8=愛してくれない
TTITLE9=Punch↑
TTITLE10=バスケットボール
EXTD=YEAR: 1989
EXTT0=
EXTT1=
EXTT2=
EXTT3=
EXTT4=
EXTT5=
EXTT6=
EXTT7=
EXTT8=
EXTT9=
EXTT10=
PLAYORDER=
